# Exported from Wings 3D 1.4.1
o torus1
#24 vertices, 24 faces
v -6.9774433e-17 -1.66421356 3.0587281e-17
v -1.17677670 -1.17677670 7.2797172e-17
v -1.66421356 -1.2734630e-16 3.0587281e-17
v -1.17677670 1.17677670 -7.1316410e-17
v -2.7358181e-16 1.66421356 -1.7322010e-16
v 1.17677670 1.17677670 -2.1542999e-16
v 1.66421356 2.8026846e-16 -1.7322010e-16
v 1.17677670 -1.17677670 -7.1316410e-17
v -5.6517243e-17 -1.28921356 0.21650635
v -0.91161165 -0.91161165 0.21650635
v -1.28921356 -9.1126984e-17 0.21650635
v -0.91161165 0.91161165 0.21650635
v -2.1440037e-16 1.28921356 0.21650635
v 0.91161165 0.91161165 0.21650635
v 1.28921356 2.2463927e-16 0.21650635
v 0.91161165 -0.91161165 0.21650635
v -8.3031624e-17 -1.28921356 -0.21650635
v -0.91161165 -0.91161165 -0.21650635
v -1.28921356 -1.1764136e-16 -0.21650635
v -0.91161165 0.91161165 -0.21650635
v -2.4091475e-16 1.28921356 -0.21650635
v 0.91161165 0.91161165 -0.21650635
v 1.28921356 1.9812489e-16 -0.21650635
v 0.91161165 -0.91161165 -0.21650635
vn 1.4172294e-17 -1.00000000 -1.1337836e-16
vn -0.70710678 -0.70710678 -2.8344589e-16
vn -1.00000000 -1.1337836e-16 -2.8344589e-16
vn -0.70710678 0.70710678 -3.4013507e-16
vn -2.4092900e-16 1.00000000 -3.9682424e-16
vn 0.70710678 0.70710678 -2.2675671e-16
vn 1.00000000 1.9841212e-16 -2.2675671e-16
vn 0.70710678 -0.70710678 -1.7006753e-16
vn -2.9131891e-17 0.45580389 0.89008023
vn 0.32230202 0.32230202 0.89008023
vn 0.45580389 8.7395674e-17 0.89008023
vn 0.32230202 -0.32230202 0.89008023
vn 2.9131891e-17 -0.45580389 0.89008023
vn -0.32230202 -0.32230202 0.89008023
vn -0.45580389 2.9131891e-17 0.89008023
vn -0.32230202 0.32230202 0.89008023
vn -1.4565946e-16 0.45580389 -0.89008023
vn 0.32230202 0.32230202 -0.89008023
vn 0.45580389 -4.3697837e-17 -0.89008023
vn 0.32230202 -0.32230202 -0.89008023
vn -5.8263783e-17 -0.45580389 -0.89008023
vn -0.32230202 -0.32230202 -0.89008023
vn -0.45580389 -5.8263783e-17 -0.89008023
vn -0.32230202 0.32230202 -0.89008023
g torus1_default
s 1
f 1//1 9//9 10//10 2//2
f 1//1 17//17 24//24 8//8
f 2//2 10//10 11//11 3//3
f 2//2 18//18 17//17 1//1
f 3//3 11//11 12//12 4//4
f 3//3 19//19 18//18 2//2
f 4//4 12//12 13//13 5//5
f 4//4 20//20 19//19 3//3
f 5//5 13//13 14//14 6//6
f 5//5 21//21 20//20 4//4
f 6//6 14//14 15//15 7//7
f 6//6 22//22 21//21 5//5
f 7//7 15//15 16//16 8//8
f 7//7 23//23 22//22 6//6
f 8//8 16//16 9//9 1//1
f 8//8 24//24 23//23 7//7
f 9//9 17//17 18//18 10//10
f 10//10 18//18 19//19 11//11
f 11//11 19//19 20//20 12//12
f 12//12 20//20 21//21 13//13
f 13//13 21//21 22//22 14//14
f 14//14 22//22 23//23 15//15
f 15//15 23//23 24//24 16//16
f 16//16 24//24 17//17 9//9
