# Exported from Wings 3D 1.5.2
mtllib roomba.mtl
o roomba
#130 vertices, 160 faces
v 0.82000000 9.0200000e-2 6.3230671e-18
v 0.80424393 9.0200000e-2 0.15997406
v 0.75758122 9.0200000e-2 0.31380041
v 0.68180508 9.0200000e-2 0.45556759
v 0.57982756 9.0200000e-2 0.57982756
v 0.45556759 9.0200000e-2 0.68180508
v 0.31380041 9.0200000e-2 0.75758122
v 0.15997406 9.0200000e-2 0.80424393
v 3.6159259e-17 9.0200000e-2 0.82000000
v -0.15997406 9.0200000e-2 0.80424393
v -0.31380041 9.0200000e-2 0.75758122
v -0.45556759 9.0200000e-2 0.68180508
v -0.57982756 9.0200000e-2 0.57982756
v -0.68180508 9.0200000e-2 0.45556759
v -0.75758122 9.0200000e-2 0.31380041
v -0.80424393 9.0200000e-2 0.15997406
v -0.82000000 9.0200000e-2 1.0674410e-16
v -0.80424393 9.0200000e-2 -0.15997406
v -0.75758122 9.0200000e-2 -0.31380041
v -0.68180508 9.0200000e-2 -0.45556759
v -0.57982756 9.0200000e-2 -0.57982756
v -0.45556759 9.0200000e-2 -0.68180508
v -0.31380041 9.0200000e-2 -0.75758122
v -0.15997406 9.0200000e-2 -0.80424393
v -1.6468282e-16 9.0200000e-2 -0.82000000
v 0.15997406 9.0200000e-2 -0.80424393
v 0.31380041 9.0200000e-2 -0.75758122
v 0.45556759 9.0200000e-2 -0.68180508
v 0.57982756 9.0200000e-2 -0.57982756
v 0.68180508 9.0200000e-2 -0.45556759
v 0.75758122 9.0200000e-2 -0.31380041
v 0.80424393 9.0200000e-2 -0.15997406
v 0.82000000 -9.0200000e-2 6.3230671e-18
v 0.80424393 -9.0200000e-2 0.15997406
v 0.75758122 -9.0200000e-2 0.31380041
v 0.68180508 -9.0200000e-2 0.45556759
v 0.57982756 -9.0200000e-2 0.57982756
v 0.45556759 -9.0200000e-2 0.68180508
v 0.31380041 -9.0200000e-2 0.75758122
v 0.15997406 -9.0200000e-2 0.80424393
v 3.6159259e-17 -9.0200000e-2 0.82000000
v -0.15997406 -9.0200000e-2 0.80424393
v -0.31380041 -9.0200000e-2 0.75758122
v -0.45556759 -9.0200000e-2 0.68180508
v -0.57982756 -9.0200000e-2 0.57982756
v -0.68180508 -9.0200000e-2 0.45556759
v -0.75758122 -9.0200000e-2 0.31380041
v -0.80424393 -9.0200000e-2 0.15997406
v -0.82000000 -9.0200000e-2 1.0674410e-16
v -0.80424393 -9.0200000e-2 -0.15997406
v -0.75758122 -9.0200000e-2 -0.31380041
v -0.68180508 -9.0200000e-2 -0.45556759
v -0.57982756 -9.0200000e-2 -0.57982756
v -0.45556759 -9.0200000e-2 -0.68180508
v -0.31380041 -9.0200000e-2 -0.75758122
v -0.15997406 -9.0200000e-2 -0.80424393
v -1.6468282e-16 -9.0200000e-2 -0.82000000
v 0.15997406 -9.0200000e-2 -0.80424393
v 0.31380041 -9.0200000e-2 -0.75758122
v 0.45556759 -9.0200000e-2 -0.68180508
v 0.57982756 -9.0200000e-2 -0.57982756
v 0.68180508 -9.0200000e-2 -0.45556759
v 0.75758122 -9.0200000e-2 -0.31380041
v 0.80424393 -9.0200000e-2 -0.15997406
v 0.73186198 0.13464444 0.14557640
v 0.74620000 0.13464444 5.6922539e-18
v 0.73186198 0.13464444 -0.14557640
v 0.68939891 0.13464444 -0.28555838
v 0.62044262 0.13464444 -0.41456651
v 0.52764308 0.13464444 -0.52764308
v 0.41456651 0.13464444 -0.62044262
v 0.28555838 0.13464444 -0.68939891
v 0.14557640 0.13464444 -0.73186198
v -1.5485737e-16 0.13464444 -0.74620000
v -0.14557640 0.13464444 -0.73186198
v -0.28555838 0.13464444 -0.68939891
v -0.41456651 0.13464444 -0.62044262
v -0.52764308 0.13464444 -0.52764308
v -0.62044262 0.13464444 -0.41456651
v -0.68939891 0.13464444 -0.28555838
v -0.73186198 0.13464444 -0.14557640
v -0.74620000 0.13464444 9.7075398e-17
v -0.73186198 0.13464444 0.14557640
v -0.68939891 0.13464444 0.28555838
v -0.62044262 0.13464444 0.41456651
v -0.52764308 0.13464444 0.52764308
v -0.41456651 0.13464444 0.62044262
v -0.28555838 0.13464444 0.68939891
v -0.14557640 0.13464444 0.73186198
v 2.7908922e-17 0.13464444 0.74620000
v 0.14557640 0.13464444 0.73186198
v 0.28555838 0.13464444 0.68939891
v 0.41456651 0.13464444 0.62044262
v 0.52764308 0.13464444 0.52764308
v 0.62044262 0.13464444 0.41456651
v 0.68939891 0.13464444 0.28555838
v -2.7755576e-17 0.16664444 -8.0465078e-17
v 0.78884000 -0.11864444 4.6564873e-18
v 0.77368266 -0.11864444 0.15389505
v 0.72879313 -0.11864444 0.30187600
v 0.65589649 -0.11864444 0.43825602
v 0.55779411 -0.11864444 0.55779411
v 0.43825602 -0.11864444 0.65589649
v 0.30187600 -0.11864444 0.72879313
v 0.15389505 -0.11864444 0.77368266
v 3.3466817e-17 -0.11864444 0.78884000
v -0.15389505 -0.11864444 0.77368266
v -0.30187600 -0.11864444 0.72879313
v -0.43825602 -0.11864444 0.65589649
v -0.55779411 -0.11864444 0.55779411
v -0.65589649 -0.11864444 0.43825602
v -0.72879313 -0.11864444 0.30187600
v -0.77368266 -0.11864444 0.15389505
v -0.78884000 -0.11864444 1.0126153e-16
v -0.77368266 -0.11864444 -0.15389505
v -0.72879313 -0.11864444 -0.30187600
v -0.65589649 -0.11864444 -0.43825602
v -0.55779411 -0.11864444 -0.55779411
v -0.43825602 -0.11864444 -0.65589649
v -0.30187600 -0.11864444 -0.72879313
v -0.15389505 -0.11864444 -0.77368266
v -1.5974326e-16 -0.11864444 -0.78884000
v 0.15389505 -0.11864444 -0.77368266
v 0.30187600 -0.11864444 -0.72879313
v 0.43825602 -0.11864444 -0.65589649
v 0.55779411 -0.11864444 -0.55779411
v 0.65589649 -0.11864444 -0.43825602
v 0.72879313 -0.11864444 -0.30187600
v 0.77368266 -0.11864444 -0.15389505
v -4.1633363e-17 -0.13820000 -2.9490299e-17
vn 0.87011063 0.49285647 9.5935341e-17
vn 0.85339169 0.49285647 0.16975016
vn 0.80387740 0.49285647 0.33297692
vn 0.72347054 0.49285647 0.48340756
vn 0.61526112 0.49285647 0.61526112
vn 0.48340756 0.49285647 0.72347054
vn 0.33297692 0.49285647 0.80387740
vn 0.16975016 0.49285647 0.85339169
vn 1.9986529e-18 0.49285647 0.87011063
vn -0.16975016 0.49285647 0.85339169
vn -0.33297692 0.49285647 0.80387740
vn -0.48340756 0.49285647 0.72347054
vn -0.61526112 0.49285647 0.61526112
vn -0.72347054 0.49285647 0.48340756
vn -0.80387740 0.49285647 0.33297692
vn -0.85339169 0.49285647 0.16975016
vn -0.87011063 0.49285647 1.1991918e-17
vn -0.85339169 0.49285647 -0.16975016
vn -0.80387740 0.49285647 -0.33297692
vn -0.72347054 0.49285647 -0.48340756
vn -0.61526112 0.49285647 -0.61526112
vn -0.48340756 0.49285647 -0.72347054
vn -0.33297692 0.49285647 -0.80387740
vn -0.16975016 0.49285647 -0.85339169
vn 1.5989223e-17 0.49285647 -0.87011063
vn 0.16975016 0.49285647 -0.85339169
vn 0.33297692 0.49285647 -0.80387740
vn 0.48340756 0.49285647 -0.72347054
vn 0.61526112 0.49285647 -0.61526112
vn 0.72347054 0.49285647 -0.48340756
vn 0.80387740 0.49285647 -0.33297692
vn 0.85339169 0.49285647 -0.16975016
vn 0.91469545 -0.40414383 1.0274525e-16
vn 0.89711983 -0.40414383 0.17844823
vn 0.84506841 -0.40414383 0.35003879
vn 0.76054147 -0.40414383 0.50817756
vn 0.64678736 -0.40414383 0.64678736
vn 0.50817756 -0.40414383 0.76054147
vn 0.35003879 -0.40414383 0.84506841
vn 0.17844823 -0.40414383 0.89711983
vn 0.0000000e+0 -0.40414383 0.91469545
vn -0.17844823 -0.40414383 0.89711983
vn -0.35003879 -0.40414383 0.84506841
vn -0.50817756 -0.40414383 0.76054147
vn -0.64678736 -0.40414383 0.64678736
vn -0.76054147 -0.40414383 0.50817756
vn -0.84506841 -0.40414383 0.35003879
vn -0.89711983 -0.40414383 0.17844823
vn -0.91469545 -0.40414383 1.5221519e-17
vn -0.89711983 -0.40414383 -0.17844823
vn -0.84506841 -0.40414383 -0.35003879
vn -0.76054147 -0.40414383 -0.50817756
vn -0.64678736 -0.40414383 -0.64678736
vn -0.50817756 -0.40414383 -0.76054147
vn -0.35003879 -0.40414383 -0.84506841
vn -0.17844823 -0.40414383 -0.89711983
vn 1.5221519e-17 -0.40414383 -0.91469545
vn 0.17844823 -0.40414383 -0.89711983
vn 0.35003879 -0.40414383 -0.84506841
vn 0.50817756 -0.40414383 -0.76054147
vn 0.64678736 -0.40414383 -0.64678736
vn 0.76054147 -0.40414383 -0.50817756
vn 0.84506841 -0.40414383 -0.35003879
vn 0.89711983 -0.40414383 -0.17844823
vn 0.28261278 0.95758544 5.6215178e-2
vn 0.28814950 0.95758544 3.0677058e-17
vn 0.28261278 0.95758544 -5.6215178e-2
vn 0.26621542 0.95758544 -0.11027004
vn 0.23958755 0.95758544 -0.16008728
vn 0.20375246 0.95758544 -0.20375246
vn 0.16008728 0.95758544 -0.23958755
vn 0.11027004 0.95758544 -0.26621542
vn 5.6215178e-2 0.95758544 -0.28261278
vn 4.0305624e-18 0.95758544 -0.28814950
vn -5.6215178e-2 0.95758544 -0.28261278
vn -0.11027004 0.95758544 -0.26621542
vn -0.16008728 0.95758544 -0.23958755
vn -0.20375246 0.95758544 -0.20375246
vn -0.23958755 0.95758544 -0.16008728
vn -0.26621542 0.95758544 -0.11027004
vn -0.28261278 0.95758544 -5.6215178e-2
vn -0.28814950 0.95758544 -6.7176040e-19
vn -0.28261278 0.95758544 5.6215178e-2
vn -0.26621542 0.95758544 0.11027004
vn -0.23958755 0.95758544 0.16008728
vn -0.20375246 0.95758544 0.20375246
vn -0.16008728 0.95758544 0.23958755
vn -0.11027004 0.95758544 0.26621542
vn -5.6215178e-2 0.95758544 0.28261278
vn 2.0152812e-18 0.95758544 0.28814950
vn 5.6215178e-2 0.95758544 0.28261278
vn 0.11027004 0.95758544 0.26621542
vn 0.16008728 0.95758544 0.23958755
vn 0.20375246 0.95758544 0.20375246
vn 0.23958755 0.95758544 0.16008728
vn 0.26621542 0.95758544 0.11027004
vn -1.5192916e-18 1.00000000 7.5964582e-19
vn 0.37270027 -0.92795178 4.2175619e-17
vn 0.36553894 -0.92795178 7.2710216e-2
vn 0.34433015 -0.92795178 0.14262622
vn 0.30988895 -0.92795178 0.20706118
vn 0.26353889 -0.92795178 0.26353889
vn 0.20706118 -0.92795178 0.30988895
vn 0.14262622 -0.92795178 0.34433015
vn 7.2710216e-2 -0.92795178 0.36553894
vn 0.0000000e+0 -0.92795178 0.37270027
vn -7.2710216e-2 -0.92795178 0.36553894
vn -0.14262622 -0.92795178 0.34433015
vn -0.20706118 -0.92795178 0.30988895
vn -0.26353889 -0.92795178 0.26353889
vn -0.30988895 -0.92795178 0.20706118
vn -0.34433015 -0.92795178 0.14262622
vn -0.36553894 -0.92795178 7.2710216e-2
vn -0.37270027 -0.92795178 4.0553480e-18
vn -0.36553894 -0.92795178 -7.2710216e-2
vn -0.34433015 -0.92795178 -0.14262622
vn -0.30988895 -0.92795178 -0.20706118
vn -0.26353889 -0.92795178 -0.26353889
vn -0.20706118 -0.92795178 -0.30988895
vn -0.14262622 -0.92795178 -0.34433015
vn -7.2710216e-2 -0.92795178 -0.36553894
vn 3.9394809e-18 -0.92795178 -0.37270027
vn 7.2710216e-2 -0.92795178 -0.36553894
vn 0.14262622 -0.92795178 -0.34433015
vn 0.20706118 -0.92795178 -0.30988895
vn 0.26353889 -0.92795178 -0.26353889
vn 0.30988895 -0.92795178 -0.20706118
vn 0.34433015 -0.92795178 -0.14262622
vn 0.36553894 -0.92795178 -7.2710216e-2
vn -2.1690770e-18 -1.00000000 -3.4027396e-18
g roomba_group
usemtl default
s 1
f 1//1 33//33 64//64 32//32
f 1//1 66//66 65//65 2//2
f 2//2 34//34 33//33 1//1
f 2//2 65//65 96//96 3//3
f 3//3 35//35 34//34 2//2
f 3//3 96//96 95//95 4//4
f 4//4 36//36 35//35 3//3
f 4//4 95//95 94//94 5//5
f 5//5 37//37 36//36 4//4
f 5//5 94//94 93//93 6//6
f 6//6 38//38 37//37 5//5
f 6//6 93//93 92//92 7//7
f 7//7 39//39 38//38 6//6
f 7//7 92//92 91//91 8//8
f 8//8 40//40 39//39 7//7
f 8//8 91//91 90//90 9//9
f 9//9 41//41 40//40 8//8
f 9//9 90//90 89//89 10//10
f 10//10 42//42 41//41 9//9
f 10//10 89//89 88//88 11//11
f 11//11 43//43 42//42 10//10
f 11//11 88//88 87//87 12//12
f 12//12 44//44 43//43 11//11
f 12//12 87//87 86//86 13//13
f 13//13 45//45 44//44 12//12
f 13//13 86//86 85//85 14//14
f 14//14 46//46 45//45 13//13
f 14//14 85//85 84//84 15//15
f 15//15 47//47 46//46 14//14
f 15//15 84//84 83//83 16//16
f 16//16 48//48 47//47 15//15
f 16//16 83//83 82//82 17//17
f 17//17 49//49 48//48 16//16
f 17//17 82//82 81//81 18//18
f 18//18 50//50 49//49 17//17
f 18//18 81//81 80//80 19//19
f 19//19 51//51 50//50 18//18
f 19//19 80//80 79//79 20//20
f 20//20 52//52 51//51 19//19
f 20//20 79//79 78//78 21//21
f 21//21 53//53 52//52 20//20
f 21//21 78//78 77//77 22//22
f 22//22 54//54 53//53 21//21
f 22//22 77//77 76//76 23//23
f 23//23 55//55 54//54 22//22
f 23//23 76//76 75//75 24//24
f 24//24 56//56 55//55 23//23
f 24//24 75//75 74//74 25//25
f 25//25 57//57 56//56 24//24
f 25//25 74//74 73//73 26//26
f 26//26 58//58 57//57 25//25
f 26//26 73//73 72//72 27//27
f 27//27 59//59 58//58 26//26
f 27//27 72//72 71//71 28//28
f 28//28 60//60 59//59 27//27
f 28//28 71//71 70//70 29//29
f 29//29 61//61 60//60 28//28
f 29//29 70//70 69//69 30//30
f 30//30 62//62 61//61 29//29
f 30//30 69//69 68//68 31//31
f 31//31 63//63 62//62 30//30
f 31//31 68//68 67//67 32//32
f 32//32 64//64 63//63 31//31
f 32//32 67//67 66//66 1//1
f 33//33 98//98 129//129 64//64
f 34//34 99//99 98//98 33//33
f 35//35 100//100 99//99 34//34
f 36//36 101//101 100//100 35//35
f 37//37 102//102 101//101 36//36
f 38//38 103//103 102//102 37//37
f 39//39 104//104 103//103 38//38
f 40//40 105//105 104//104 39//39
f 41//41 106//106 105//105 40//40
f 42//42 107//107 106//106 41//41
f 43//43 108//108 107//107 42//42
f 44//44 109//109 108//108 43//43
f 45//45 110//110 109//109 44//44
f 46//46 111//111 110//110 45//45
f 47//47 112//112 111//111 46//46
f 48//48 113//113 112//112 47//47
f 49//49 114//114 113//113 48//48
f 50//50 115//115 114//114 49//49
f 51//51 116//116 115//115 50//50
f 52//52 117//117 116//116 51//51
f 53//53 118//118 117//117 52//52
f 54//54 119//119 118//118 53//53
f 55//55 120//120 119//119 54//54
f 56//56 121//121 120//120 55//55
f 57//57 122//122 121//121 56//56
f 58//58 123//123 122//122 57//57
f 59//59 124//124 123//123 58//58
f 60//60 125//125 124//124 59//59
f 61//61 126//126 125//125 60//60
f 62//62 127//127 126//126 61//61
f 63//63 128//128 127//127 62//62
f 64//64 129//129 128//128 63//63
f 65//65 97//97 96//96
f 66//66 97//97 65//65
f 67//67 97//97 66//66
f 68//68 97//97 67//67
f 69//69 97//97 68//68
f 70//70 97//97 69//69
f 71//71 97//97 70//70
f 72//72 97//97 71//71
f 73//73 97//97 72//72
f 74//74 97//97 73//73
f 75//75 97//97 74//74
f 76//76 97//97 75//75
f 77//77 97//97 76//76
f 78//78 97//97 77//77
f 79//79 97//97 78//78
f 80//80 97//97 79//79
f 81//81 97//97 80//80
f 82//82 97//97 81//81
f 83//83 97//97 82//82
f 84//84 97//97 83//83
f 85//85 97//97 84//84
f 86//86 97//97 85//85
f 87//87 97//97 86//86
f 88//88 97//97 87//87
f 89//89 97//97 88//88
f 90//90 97//97 89//89
f 91//91 97//97 90//90
f 92//92 97//97 91//91
f 93//93 97//97 92//92
f 94//94 97//97 93//93
f 95//95 97//97 94//94
f 96//96 97//97 95//95
f 98//98 130//130 129//129
f 99//99 130//130 98//98
f 100//100 130//130 99//99
f 101//101 130//130 100//100
f 102//102 130//130 101//101
f 103//103 130//130 102//102
f 104//104 130//130 103//103
f 105//105 130//130 104//104
f 106//106 130//130 105//105
f 107//107 130//130 106//106
f 108//108 130//130 107//107
f 109//109 130//130 108//108
f 110//110 130//130 109//109
f 111//111 130//130 110//110
f 112//112 130//130 111//111
f 113//113 130//130 112//112
f 114//114 130//130 113//113
f 115//115 130//130 114//114
f 116//116 130//130 115//115
f 117//117 130//130 116//116
f 118//118 130//130 117//117
f 119//119 130//130 118//118
f 120//120 130//130 119//119
f 121//121 130//130 120//120
f 122//122 130//130 121//121
f 123//123 130//130 122//122
f 124//124 130//130 123//123
f 125//125 130//130 124//124
f 126//126 130//130 125//125
f 127//127 130//130 126//126
f 128//128 130//130 127//127
f 129//129 130//130 128//128
